<svg width="25" height="25" viewBox="0 0 25 25" xmlns="http://www.w3.org/2000/svg">
<path d="M12.1316 1.96879e-05C15.3674 0.00583023 18.3053 1.28093 20.4743 3.35378L22.2182 1.60988C22.9565 0.871651 24.2188 1.3945 24.2188 2.43855V8.98439C24.2188 9.63161 23.6941 10.1563 23.0469 10.1563H16.501C15.457 10.1563 14.9341 8.89401 15.6724 8.15573L17.7109 6.11716C16.2039 4.70607 14.2539 3.92443 12.1821 3.90656C7.67051 3.8676 3.86753 7.51872 3.90654 12.1801C3.94355 16.602 7.52852 20.3125 12.1094 20.3125C14.1175 20.3125 16.0155 19.5958 17.5112 18.2834C17.7428 18.0802 18.0925 18.0926 18.3104 18.3104L20.247 20.247C20.4849 20.4849 20.4731 20.8728 20.2235 21.0983C18.0763 23.0378 15.2308 24.2188 12.1094 24.2188C5.42158 24.2188 4.88285e-05 18.7972 3.28005e-10 12.1095C-4.88278e-05 5.42937 5.45146 -0.0119432 12.1316 1.96879e-05Z" fill="currentColor"/>
</svg>